# xmcd
#
# Track frame offsets: 
#        150
#        13600
#        30360
#        43407
#        74068
#        97361
#        113988
#        138318
#        159713
#        179991
#        193395
#        213202
#        235341
#        255534
#        266704
#        283227
#        295030
#        310677
#
# Disc length: 4368 seconds
#
# Revision: 0
# Processed by: cddbd v1.5.2PL0 Copyright (c) Steve Scherf et al.
# Submitted via: ExactAudioCopy v0.99pb4
#
DISCID=24110e12
DTITLE=Paul Westerberg - Portland
DYEAR=2002
DGENRE=Ambient
TTITLE0=Another Girl, Another Planet
TTITLE1=No Expectations
TTITLE2=Waiting for Somebody
TTITLE3=Best Thing that Never Happened
TTITLE4=Achin' to Be
TTITLE5=Got You Down
TTITLE6=We May be the Ones
TTITLE7=Two Days Till Tomorrow
TTITLE8=Lookin' Out Forever
TTITLE9=Take Out Some Insurance on Me
TTITLE10=Let the Bad Times Roll
TTITLE11=I Will Dare
TTITLE12=Swingin' Party
TTITLE13=Psychopharmacology
TTITLE14=Skyway
TTITLE15=Portland
TTITLE16=Once Around the Weekend
TTITLE17=Crackle and Drag
EXTD=
EXTT0=
EXTT1=
EXTT2=
EXTT3=
EXTT4=
EXTT5=
EXTT6=
EXTT7=
EXTT8=
EXTT9=
EXTT10=
EXTT11=
EXTT12=
EXTT13=
EXTT14=
EXTT15=
EXTT16=
EXTT17=
PLAYORDER=
